<?xml version="1.0" encoding="UTF-8" standalone="no"?>
<svg
   xmlns:dc="http://purl.org/dc/elements/1.1/"
   xmlns:cc="http://creativecommons.org/ns#"
   xmlns:rdf="http://www.w3.org/1999/02/22-rdf-syntax-ns#"
   xmlns:svg="http://www.w3.org/2000/svg"
   xmlns="http://www.w3.org/2000/svg"
   xmlns:sodipodi="http://sodipodi.sourceforge.net/DTD/sodipodi-0.dtd"
   xmlns:inkscape="http://www.inkscape.org/namespaces/inkscape"
   width="24.0px"
   height="24.0px"
   viewBox="0 0 24.0 24.0"
   version="1.1"
   id="SVGRoot"
   sodipodi:docname="poly-draw.svg"
   inkscape:version="1.0.2 (e86c870879, 2021-01-15, custom)">
  <defs
     id="defs833" />
  <sodipodi:namedview
     id="base"
     pagecolor="#ffffff"
     bordercolor="#666666"
     borderopacity="1.0"
     inkscape:pageopacity="0.0"
     inkscape:pageshadow="2"
     inkscape:zoom="17.699131"
     inkscape:cx="8.8281539"
     inkscape:cy="15.071887"
     inkscape:document-units="px"
     inkscape:current-layer="layer1"
     inkscape:document-rotation="0"
     showgrid="true"
     inkscape:window-width="1343"
     inkscape:window-height="908"
     inkscape:window-x="512"
     inkscape:window-y="112"
     inkscape:window-maximized="0">
    <inkscape:grid
       type="xygrid"
       id="grid1403" />
  </sodipodi:namedview>
  <metadata
     id="metadata836">
    <rdf:RDF>
      <cc:Work
         rdf:about="">
        <dc:format>image/svg+xml</dc:format>
        <dc:type
           rdf:resource="http://purl.org/dc/dcmitype/StillImage" />
        <dc:title />
      </cc:Work>
    </rdf:RDF>
  </metadata>
  <g
     inkscape:label="Layer 1"
     inkscape:groupmode="layer"
     id="layer1">
    <path
       style="fill:none;fill-opacity:0.3;stroke:#ffffff;stroke-width:1.15018;paint-order:fill markers stroke"
       d="m 3,4 c 0.545454,1.9089166 1.090908,3.6444538 1.636362,5.206613 0.545454,1.562157 1.090908,2.95024 1.636362,4.165283 0.545454,1.215051 1.090908,2.256029 1.636371,3.123942 0.545454,0.867972 1.090908,1.561812 1.636362,2.082696 0.545454,0.5208 1.090863,0.867552 1.636353,1.041264 0.54549,0.173796 1.09089,0.173376 1.63638,0 0.54549,-0.173376 1.09089,-0.5208 1.63638,-1.041264 0.5454,-0.520548 1.09089,-1.21506 1.63638,-2.082696 0.5454,-0.867568 1.09089,-1.909235 1.63629,-3.123942 0.54549,-1.214699 1.09098,-2.603479 1.63638,-4.165283 C 19.90911,7.6448015 20.45451,5.9089166 21,4"
       title="x*x"
       id="path852" />
  </g>
</svg>
