<?xml version="1.0" encoding="UTF-8" standalone="no"?>
<svg
   xmlns:dc="http://purl.org/dc/elements/1.1/"
   xmlns:cc="http://creativecommons.org/ns#"
   xmlns:rdf="http://www.w3.org/1999/02/22-rdf-syntax-ns#"
   xmlns:svg="http://www.w3.org/2000/svg"
   xmlns="http://www.w3.org/2000/svg"
   xmlns:sodipodi="http://sodipodi.sourceforge.net/DTD/sodipodi-0.dtd"
   xmlns:inkscape="http://www.inkscape.org/namespaces/inkscape"
   width="24.0px"
   height="24.0px"
   viewBox="0 0 24.0 24.0"
   version="1.1"
   id="SVGRoot"
   sodipodi:docname="gauss-draw.svg"
   inkscape:version="1.0.2 (e86c870879, 2021-01-15, custom)">
  <defs
     id="defs1546" />
  <sodipodi:namedview
     id="base"
     pagecolor="#ffffff"
     bordercolor="#666666"
     borderopacity="1.0"
     inkscape:pageopacity="0.0"
     inkscape:pageshadow="2"
     inkscape:zoom="24.708616"
     inkscape:cx="12.11629"
     inkscape:cy="12.004047"
     inkscape:document-units="px"
     inkscape:current-layer="layer1"
     inkscape:document-rotation="0"
     showgrid="true"
     inkscape:window-width="1343"
     inkscape:window-height="908"
     inkscape:window-x="40"
     inkscape:window-y="27"
     inkscape:window-maximized="0">
    <inkscape:grid
       type="xygrid"
       id="grid2116" />
  </sodipodi:namedview>
  <metadata
     id="metadata1549">
    <rdf:RDF>
      <cc:Work
         rdf:about="">
        <dc:format>image/svg+xml</dc:format>
        <dc:type
           rdf:resource="http://purl.org/dc/dcmitype/StillImage" />
        <dc:title />
      </cc:Work>
    </rdf:RDF>
  </metadata>
  <g
     inkscape:label="Layer 1"
     inkscape:groupmode="layer"
     id="layer1">
    <path
       style="fill:none;fill-opacity:0.3;stroke:#000000;stroke-width:1.35719;paint-order:fill markers stroke"
       d="M 2,20 C 2.6060632,19.9979 3.2121263,19.9978 3.8181789,19.9633 4.4242421,19.9288 5.0303053,19.8739 5.6363684,19.5839 6.2424211,19.2939 6.8484842,18.745 7.4545474,17.51 8.0606105,16.27497 8.6666632,14.24696 9.2727263,11.80992 9.8787368,9.37289 10.484842,6.623189 11.090947,5.1489 c 0.606,-1.47429 1.212106,-1.47178 1.818106,0 0.606105,1.471781 1.21221,4.22344 1.81821,6.66102 0.606105,2.43759 1.212105,4.46371 1.818211,5.70008 0.606,1.2364 1.212105,1.7834 1.81821,2.0739 0.606,0.2905 1.212105,0.3448 1.818105,0.3794 C 20.787895,19.9979 21.393895,19.9979 22,20"
       title="4*exp(-x*x)"
       id="path2129" />
  </g>
</svg>
