<?xml version="1.0" encoding="UTF-8" standalone="no"?>
<svg
   xmlns:dc="http://purl.org/dc/elements/1.1/"
   xmlns:cc="http://creativecommons.org/ns#"
   xmlns:rdf="http://www.w3.org/1999/02/22-rdf-syntax-ns#"
   xmlns:svg="http://www.w3.org/2000/svg"
   xmlns="http://www.w3.org/2000/svg"
   xmlns:sodipodi="http://sodipodi.sourceforge.net/DTD/sodipodi-0.dtd"
   xmlns:inkscape="http://www.inkscape.org/namespaces/inkscape"
   width="24.0px"
   height="24.0px"
   viewBox="0 0 24.0 24.0"
   version="1.1"
   id="SVGRoot"
   sodipodi:docname="sinus-draw.svg"
   inkscape:version="1.0.2 (e86c870879, 2021-01-15, custom)">
  <defs
     id="defs833" />
  <sodipodi:namedview
     id="base"
     pagecolor="#ffffff"
     bordercolor="#666666"
     borderopacity="1.0"
     inkscape:pageopacity="0.0"
     inkscape:pageshadow="2"
     inkscape:zoom="34.269163"
     inkscape:cx="10.664787"
     inkscape:cy="16.971517"
     inkscape:document-units="px"
     inkscape:current-layer="layer1"
     inkscape:document-rotation="0"
     showgrid="true"
     inkscape:window-width="960"
     inkscape:window-height="1026"
     inkscape:window-x="0"
     inkscape:window-y="27"
     inkscape:window-maximized="0">
    <inkscape:grid
       type="xygrid"
       id="grid1403" />
  </sodipodi:namedview>
  <metadata
     id="metadata836">
    <rdf:RDF>
      <cc:Work
         rdf:about="">
        <dc:format>image/svg+xml</dc:format>
        <dc:type
           rdf:resource="http://purl.org/dc/dcmitype/StillImage" />
        <dc:title />
      </cc:Work>
    </rdf:RDF>
  </metadata>
  <g
     inkscape:label="Layer 1"
     inkscape:groupmode="layer"
     id="layer1">
    <path
       style="fill:none;fill-opacity:0.3;stroke:#000000;stroke-width:1.74529;paint-order:fill markers stroke"
       d="M 2,17 C 2.60606,16.415118 3.21212,14.785109 3.81818,12.923932 4.42424,11.062582 5.0303,9.0523993 5.63636,7.8979546 6.24242,6.7435098 6.84848,6.499287 7.45455,7.2831327 c 0.60606,0.7838457 1.21212,2.5661677 1.81818,4.4520623 0.60606,1.886069 1.21207,3.793723 1.81817,4.770092 0.6061,0.976544 1.2121,0.974803 1.8182,0 0.6061,-0.974628 1.2121,-2.883849 1.8182,-4.770092 0.606,-1.8860686 1.2121,-3.6663018 1.8182,-4.4520623 0.606,-0.7857605 1.2121,-0.5380562 1.8181,0.6148219 0.6061,1.152704 1.2122,3.1642784 1.8182,5.0259774 C 20.7879,14.785457 21.3939,16.415118 22,17"
       title="sin(x)"
       id="path1477" />
  </g>
</svg>
